HIERARCHY
ROOT pelvis
{
  OFFSET 0 100 0
  CHANNELS 6 Xposition Yposition Zposition Zrotation Xrotation Yrotation
  JOINT pelvis_right_femur
  {
    OFFSET -10.78128 -3.44521 -0.5502486
    CHANNELS 3 Zrotation Xrotation Yrotation
    JOINT right_femur_tibia
    {
      OFFSET -0.8047443 -44.0398 -0.1307829
      CHANNELS 3 Zrotation Xrotation Yrotation
      JOINT right_tibia_foot
      {
        OFFSET 3.006224 -47.83518 -5
        CHANNELS 3 Zrotation Xrotation Yrotation
        End Site
        {
          OFFSET 0 -5 15
        }
      }
    }
  }
  JOINT pelvis_left_femur
  {
    OFFSET 10.78128 -3.44521 -0.5502486
    CHANNELS 3 Zrotation Xrotation Yrotation
    JOINT left_femur_tibia
    {
      OFFSET 0.8047443 -44.0398 -0.1307829
      CHANNELS 3 Zrotation Xrotation Yrotation
      JOINT left_tibia_foot
      {
        OFFSET -4.370144 -48.10324 -4.275266
        CHANNELS 3 Zrotation Xrotation Yrotation
        End Site
        {
          OFFSET 0 -5 15
        }
      }
    }
  }
  JOINT pelvis_spine1
  {
    OFFSET 0 6.468898 -3.129235
    CHANNELS 3 Zrotation Xrotation Yrotation
    JOINT spine1
    {
      OFFSET 0 23.15396 4.99043
      CHANNELS 3 Zrotation Xrotation Yrotation
      JOINT spine2
      {
        OFFSET 0 20.79997 -5.064912
        CHANNELS 3 Zrotation Xrotation Yrotation
        JOINT neck
        {
          OFFSET 0 14.38658 9.616178
          CHANNELS 3 Zrotation Xrotation Yrotation
          End Site
          {
            OFFSET 0 20 0
          }
        }
      }
      JOINT right_manubrium
      {
        OFFSET -5.722621 16.35077 3.967754
        CHANNELS 3 Zrotation Xrotation Yrotation
        JOINT right_clavicle
        {
          OFFSET -13.16364 1.694482 -4.693211
          CHANNELS 3 Zrotation Xrotation Yrotation
          JOINT right_humerus
          {
            OFFSET -28.5034 -0.3100689 -2.792744
            CHANNELS 3 Zrotation Xrotation Yrotation
            JOINT right_radius
            {
              OFFSET -25.15693 0.02248979 -1.271978
              CHANNELS 3 Zrotation Xrotation Yrotation
              End Site
              {
                OFFSET -15 0 0
              }
            }
          }
        }
      }
      JOINT left_manubrium
      {
        OFFSET 5.722621 16.35077 3.967754
        CHANNELS 3 Zrotation Xrotation Yrotation
        JOINT left_clavicle
        {
          OFFSET 13.16364 1.694482 -4.693211
          CHANNELS 3 Zrotation Xrotation Yrotation
          JOINT left_humerus
          {
            OFFSET 29.39168 -1.063119 -2.237045
            CHANNELS 3 Zrotation Xrotation Yrotation
            JOINT left_radius
            {
              OFFSET 24.59957 -0.9528479 0.9047498
              CHANNELS 3 Zrotation Xrotation Yrotation
              End Site
              {
                OFFSET 15 -0 -0
              }
            }
          }
        }
      }
    }
  }
}
MOTION
Frames: 11
Frame Time: 0.0416666666667
-1272.412 102.6239 2300.101 -3.38289 -0.0157844 -63.02922 7.244208 -13.17133 -0.8551169 -0 12.95457 -0 -12.30113 -1.777032 -0.7298466 -2.801043 0.8901292 -8.702005 -0 57.4015 -0 -1.645557 -5.493797 11.15606 1.622369 -2.234413 4.99165 1.147167 12.80612 -7.294236 0.7344461 22.18225 6.584882 3.93035 -22.25697 6.730336 1.940295 -18.32721 12.05155 91.46851 27.97476 -22.83205 -0 0 8.853726 -18.59154 12.67652 8.264373 4.568834 -24.86712 -6.382087 -90.40406 19.23876 20.57957 0 0 -20.282 10.06561 16.42813 2.983648
-1277.239 103.9146 2302.411 -4.301123 -1.057264 -63.75753 6.927726 -8.03804 -1.133843 -0 12.04186 -0 -12.37598 -3.276177 -0.6436292 -2.184117 -4.512664 -7.918192 -0 59.72401 -0 -1.355839 -4.448868 12.09884 1.135457 -1.67373 5.66922 0.7046972 13.20242 -6.595795 0.8590798 22.42902 6.237275 4.093394 -21.24066 6.295609 2.004885 -18.80009 12.2685 90.25601 28.46867 -20.75364 -0 0 10.54525 -19.33384 13.38135 8.493952 4.586787 -24.56957 -6.590918 -91.28421 18.62699 21.83151 0 0 -17.79301 10.36857 16.58672 2.262188
-1281.867 104.8576 2304.597 -5.691765 -2.317758 -64.54084 6.644852 -2.195482 -1.277295 -0 10.90506 -0 -12.10551 -4.758925 -0.8876273 -1.196466 -9.749105 -6.511193 -0 57.50229 -0 -0.2573752 -3.828691 13.58524 0.6246888 -1.349948 6.294777 0.2023106 13.84514 -5.908835 1.079737 22.52949 5.534682 3.80666 -20.07923 5.810755 1.275452 -20.0842 12.44572 89.49492 27.26428 -18.23911 -0 0 12.84117 -20.68094 14.14013 9.364438 4.488854 -24.3917 -7.020673 -91.81079 17.43937 23.19758 0 0 -15.83909 10.37544 16.49294 1.865834
-1286.384 105.3078 2306.788 -7.190648 -3.287551 -65.36525 6.572294 3.505187 -0.9696145 -0 10.16426 -0 -11.55431 -6.464979 -1.439554 0.2157657 -13.96738 -4.758646 -0 50.25968 -0 1.396442 -3.400578 15.15599 0.3292685 -1.421658 6.782244 -0.1543087 14.63585 -5.44877 1.306327 22.25361 4.539897 3.025775 -19.16957 5.338721 -0.004030655 -22.29364 12.55598 89.26279 24.56642 -15.6142 -0 0 15.94597 -22.02394 14.88999 10.79644 4.092417 -24.17243 -7.532284 -92.24889 15.98935 25.34435 0 0 -14.40342 9.699214 16.10739 2.400588
-1290.894 105.2698 2309.136 -8.268019 -3.583968 -66.19695 6.643387 8.185173 -0.2455507 -0 10.2141 -0 -10.91591 -8.550713 -2.04443 1.762984 -16.66893 -3.241313 -0 39.54489 -0 2.929102 -2.955569 16.26436 0.3557108 -1.873052 7.104842 -0.2173788 15.31175 -5.311426 1.401984 21.57877 3.546776 2.01691 -18.72477 4.92567 -1.195566 -25.00611 12.58553 89.20996 21.44801 -13.20516 -0 0 19.60924 -22.81061 15.52955 12.45201 3.446835 -23.76235 -7.875689 -92.89523 14.65611 28.41123 0 0 -13.13938 8.317078 15.47819 3.929264
-1295.471 104.865 2311.731 -8.603933 -3.264745 -66.99371 6.596195 11.50575 0.443637 -0 10.93056 -0 -10.35641 -10.84735 -2.323729 2.975103 -18.15385 -2.493378 -0 28.61491 -0 3.620982 -2.490156 16.73948 0.5636208 -2.442552 7.288035 -0.06658156 15.5487 -5.331043 1.309818 20.82893 2.967473 1.286589 -18.56612 4.63585 -1.635289 -27.27833 12.56171 88.67448 19.3917 -11.16909 -0 0 22.99473 -23.06278 15.97348 13.88449 2.899854 -23.12689 -7.836202 -93.81052 13.6888 31.54734 0 0 -11.54722 6.795994 14.82074 5.645973
-1300.149 104.2257 2314.556 -8.346066 -2.709854 -67.74581 6.265792 13.74227 0.6762786 -0 11.92977 -0 -9.930081 -12.91372 -2.114612 3.59717 -19.06783 -2.594096 -0 20.07377 -0 3.308156 -2.152385 16.89664 0.7270091 -2.829223 7.341991 0.07192408 15.215 -5.232148 1.129314 20.408 2.964502 1.127378 -18.36937 4.543878 -1.240691 -28.39254 12.48932 87.39106 19.03749 -9.449006 -0 0 25.28146 -23.18057 16.12611 14.84031 2.758249 -22.33319 -7.414059 -94.78202 13.17669 33.65806 0 0 -9.444342 5.76646 14.43442 6.653315
-1304.943 103.4484 2317.546 -7.847529 -2.214593 -68.46654 5.707789 15.33957 0.4450544 -0 13.00648 -0 -9.632449 -14.41686 -1.56323 3.690718 -19.77826 -3.267383 -0 14.42819 -0 2.343706 -2.030972 17.07938 0.7526121 -2.934683 7.274537 0.07068609 14.4501 -4.906019 0.9893635 20.43576 3.363295 1.418421 -18.01966 4.654368 -0.4351838 -28.38464 12.32802 85.68552 19.91569 -7.910339 -0 0 26.31533 -23.38937 15.94169 15.36054 3.006499 -21.46067 -6.771672 -95.60433 13.10376 34.44614 0 0 -7.074567 5.350569 14.42072 6.809854
-1309.865 102.6062 2320.644 -7.338428 -1.860311 -69.16253 5.045113 16.59315 -0.01559127 -0 14.17619 -0 -9.453802 -15.29029 -0.8901768 3.434553 -20.35475 -4.222185 -0 10.95083 -0 1.129592 -2.103652 17.39276 0.668715 -2.831301 7.120105 -0.05736788 13.47858 -4.415697 0.9426951 20.7874 3.911038 1.898729 -17.58866 4.904563 0.385541 -27.69335 12.06247 83.97777 21.29256 -6.489818 -0 0 26.43457 -23.67243 15.4631 15.61129 3.450957 -20.56162 -6.06094 -96.21939 13.38199 34.28031 0 0 -4.769884 5.318384 14.66236 6.488095
-1314.932 101.7598 2323.811 -6.902804 -1.638099 -69.83062 4.347443 17.64094 -0.5193133 -0 15.51817 -0 -9.390272 -15.57119 -0.2241217 2.956225 -20.77295 -5.300195 -0 8.9039 -0 -0.1090027 -2.320174 17.82131 0.5167469 -2.608882 6.912906 -0.2662351 12.45006 -3.843771 0.9907003 21.32244 4.456429 2.405754 -17.15444 5.231926 1.05112 -26.66669 11.71118 82.49085 22.72285 -5.188885 -0 0 25.97926 -23.96638 14.75 15.7164 3.945377 -19.6628 -5.361388 -96.64566 13.9141 33.55312 0 0 -2.696311 5.457913 15.02225 6.008542
-1320.159 100.9627 2327.018 -6.571836 -1.539163 -70.46349 3.636464 18.53318 -0.9780127 -0 17.11479 -0 -9.444711 -15.25609 0.383344 2.309786 -20.99363 -6.437396 -0 7.901209 -0 -1.271127 -2.654016 18.34558 0.3123134 -2.315951 6.669273 -0.5289628 11.43742 -3.234722 1.126633 21.96612 4.935663 2.876825 -16.75084 5.598823 1.51463 -25.46798 11.29838 81.32097 24.00885 -4.035932 -0 0 25.1257 -24.23671 13.83139 15.73111 4.42762 -18.77951 -4.71038 -96.9053 14.63353 32.46285 0 0 -0.892219 5.669742 15.42111 5.510039
